<svg width="28" height="28" viewBox="0 0 28 28" fill="none" xmlns="http://www.w3.org/2000/svg">
<path d="M2.33325 6.99967C2.33325 5.762 2.82492 4.57501 3.70009 3.69984C4.57526 2.82467 5.76224 2.33301 6.99992 2.33301H20.9999C22.2376 2.33301 23.4246 2.82467 24.2997 3.69984C25.1749 4.57501 25.6666 5.762 25.6666 6.99967V12.833H2.33325V6.99967Z" stroke="black" stroke-width="1.66667" stroke-linecap="round" stroke-linejoin="round"/>
<path d="M21.5833 19.25H18.0833" stroke="black" stroke-width="1.66667" stroke-linecap="round"/>
<path d="M13.9999 12.833H25.6666V20.9997C25.6666 22.2374 25.1749 23.4243 24.2997 24.2995C23.4246 25.1747 22.2376 25.6663 20.9999 25.6663H13.9999V12.833ZM13.9999 12.833H2.33325V20.9997C2.33325 22.2374 2.82492 23.4243 3.70009 24.2995C4.57526 25.1747 5.76224 25.6663 6.99992 25.6663H13.9999V12.833Z" stroke="black" stroke-width="1.66667" stroke-linecap="round" stroke-linejoin="round"/>
<path d="M6.4165 21L8.1665 19.25M8.1665 19.25L9.9165 17.5M8.1665 19.25L9.9165 21M8.1665 19.25L6.4165 17.5" stroke="black" stroke-width="1.66667" stroke-linecap="round"/>
</svg>
