<svg width="76" height="132" viewBox="0 0 76 132" fill="none" xmlns="http://www.w3.org/2000/svg">
<path fill-rule="evenodd" clip-rule="evenodd" d="M38 10C30.3249 10 24.1429 16.1867 24.1429 23.7692C24.1429 31.3518 30.3249 37.5385 38 37.5385C45.6751 37.5385 51.8571 31.3518 51.8571 23.7692C51.8571 16.1867 45.6751 10 38 10ZM54.249 41.1729C58.9271 36.8367 61.8571 30.6492 61.8571 23.7692C61.8571 10.6198 51.1539 0 38 0C24.8461 0 14.1429 10.6198 14.1429 23.7692C14.1429 30.6492 17.0729 36.8367 21.751 41.1729C17.8481 43.0116 14.2514 45.5164 11.1382 48.6151C4.00927 55.7108 0 65.3396 0 75.3846V89.4615C0 92.223 2.23858 94.4615 5 94.4615H14.7315L18.8961 127.623C19.2102 130.124 21.3366 132 23.8571 132H52.1429C54.6634 132 56.7898 130.124 57.1039 127.623L61.2685 94.4615H71C73.7614 94.4615 76 92.223 76 89.4615V75.3846C76 65.3396 71.9907 55.7108 64.8618 48.6151C61.7486 45.5164 58.1519 43.0116 54.249 41.1729ZM38 47.5385C30.5664 47.5385 23.442 50.4779 18.1927 55.7027C12.9443 60.9267 10 68.0069 10 75.3846V84.4615H19.1429C21.6634 84.4615 23.7898 86.3376 24.1039 88.8385L28.2685 122H47.7315L51.8961 88.8385C52.2102 86.3376 54.3366 84.4615 56.8571 84.4615H66V75.3846C66 68.0069 63.0557 60.9267 57.8073 55.7027C52.558 50.4779 45.4336 47.5385 38 47.5385Z" fill="#BDFDEF"/>
</svg>
