<svg width="50" height="48" viewBox="0 0 50 48" fill="none" xmlns="http://www.w3.org/2000/svg">
<path d="M11.0554 7.27138H12.2128L12.3425 6.15003C12.6581 3.42264 15.0437 1.29358 17.9222 1.29358H32.0777C34.9572 1.29358 37.3418 3.42165 37.6573 6.14999L37.7871 7.27138H38.9445H43.4758C46.5713 7.27138 49.0909 9.72857 49.0909 12.746V32.1038C49.0917 35.1227 46.5717 37.5795 43.4758 37.5795H6.52411C3.42838 37.5795 0.909058 35.1232 0.909058 32.1048V12.746C0.909058 9.7278 3.42929 7.27138 6.52411 7.27138H11.0554Z" fill="#4889F8"/>
<path fill-rule="evenodd" clip-rule="evenodd" d="M17.9222 2.2027C15.4926 2.2027 13.5067 3.99834 13.2456 6.25456L13.0228 8.1805H6.52414C3.90947 8.1805 1.81818 10.2516 1.81818 12.746V32.1049C1.81818 34.5996 3.90864 36.6704 6.52414 36.6704H43.4758C46.0916 36.6704 48.1825 34.5991 48.1818 32.1041V12.746C48.1818 10.2522 46.0911 8.1805 43.4758 8.1805H36.9772L36.7543 6.25455C36.4933 3.99746 34.5084 2.2027 32.0778 2.2027H17.9222ZM11.4395 6.04556C11.8096 2.847 14.5949 0.384521 17.9222 0.384521H32.0778C35.4061 0.384521 38.1904 2.84595 38.5604 6.04551C38.5604 6.04553 38.5604 6.04548 38.5604 6.04551L38.5971 6.36232H43.4758C47.0517 6.36232 50 9.20503 50 12.746V32.1036C50 32.1037 50 32.1035 50 32.1036C50.0008 35.6463 47.0519 38.4886 43.4758 38.4886H6.52414C2.94818 38.4886 0 35.6469 0 32.1049V12.746C0 9.20411 2.94917 6.36232 6.52414 6.36232H11.4029L11.4395 6.04556Z" fill="white"/>
<path fill-rule="evenodd" clip-rule="evenodd" d="M25.6215 21.1878L39.7666 7.94112L38.5238 6.61401L24.3786 19.8607L25.6215 21.1878Z" fill="white"/>
<path d="M6.66048 7.27797L10.8589 7.27759L25.004 20.5243L6.87753 37.5796C3.43847 37.3603 0.909058 34.894 0.909058 32.119V12.7543C0.909058 9.73514 3.4905 7.27797 6.66048 7.27797Z" fill="#4889F8"/>
<path fill-rule="evenodd" clip-rule="evenodd" d="M11.2181 6.36841L26.3323 20.5227L7.2133 38.5119L6.81971 38.4868C3.01632 38.2442 0 35.4803 0 32.119V12.7542C0 9.19148 3.031 6.36886 6.66043 6.36882C6.66046 6.36882 6.66041 6.36882 6.66043 6.36882L11.2181 6.36841ZM10.4997 8.18666L6.6606 8.187C3.9501 8.187 1.81818 10.2787 1.81818 12.7542V32.119C1.81818 34.2155 3.69227 36.2935 6.55249 36.6371L23.6757 20.5258L10.4997 8.18666Z" fill="white"/>
<path d="M25 32.9489C31.3865 32.9489 36.5637 27.9502 36.5637 21.784C36.5637 15.6178 31.3865 10.6191 25 10.6191C18.6136 10.6191 13.4364 15.6178 13.4364 21.784C13.4364 27.9502 18.6136 32.9489 25 32.9489Z" fill="#4889F8"/>
<path fill-rule="evenodd" clip-rule="evenodd" d="M25.0001 11.5283C19.0854 11.5283 14.3455 16.1497 14.3455 21.7841C14.3455 27.4184 19.0854 32.0399 25.0001 32.0399C30.9147 32.0399 35.6546 27.4184 35.6546 21.7841C35.6546 16.1497 30.9147 11.5283 25.0001 11.5283ZM12.5273 21.7841C12.5273 15.086 18.1419 9.71008 25.0001 9.71008C31.8582 9.71008 37.4728 15.086 37.4728 21.7841C37.4728 28.4821 31.8582 33.858 25.0001 33.858C18.1419 33.858 12.5273 28.4821 12.5273 21.7841Z" fill="white"/>
<path d="M25 29.227C29.2576 29.227 32.7091 25.8945 32.7091 21.7837C32.7091 17.6729 29.2576 14.3405 25 14.3405C20.7424 14.3405 17.2909 17.6729 17.2909 21.7837C17.2909 25.8945 20.7424 29.227 25 29.227Z" fill="white"/>
<path d="M21.4086 18.6658C22.2433 17.9241 23.3458 17.5155 24.5128 17.5155C26.8072 17.5155 28.701 19.1062 28.9323 21.1392L28.6898 20.8488C28.4486 20.56 27.9957 20.5038 27.678 20.7234C27.3605 20.9428 27.2988 21.355 27.54 21.6439L28.9943 23.3851C29.1308 23.5486 29.3435 23.6447 29.5691 23.6447C29.7949 23.6447 30.0075 23.5486 30.1441 23.3851L31.5982 21.6439C31.8395 21.355 31.7777 20.9428 31.4602 20.7234C31.1425 20.5036 30.6896 20.56 30.4484 20.8488L30.3616 20.9528C30.0296 18.2831 27.5337 16.2014 24.5126 16.2014C22.9663 16.2014 21.5056 16.7427 20.3993 17.7256C20.1141 17.9791 20.1086 18.3951 20.3872 18.6547C20.6659 18.9142 21.1229 18.9194 21.4086 18.6658Z" fill="#4889F8"/>
<path d="M25.4871 27.3659C27.0335 27.3659 28.4942 26.8245 29.6004 25.8417C29.8857 25.588 29.8912 25.1721 29.6126 24.9126C29.334 24.6531 28.8768 24.6479 28.5915 24.9015C27.7567 25.6433 26.6543 26.0518 25.4873 26.0518C23.1929 26.0518 21.2991 24.4611 21.0677 22.4281L21.3102 22.7185C21.5514 23.0073 22.0044 23.0636 22.322 22.8439C22.6396 22.6244 22.7012 22.2123 22.46 21.9233L21.0058 20.1821C20.8692 20.0186 20.6566 19.9226 20.431 19.9226C20.2052 19.9226 19.9926 20.0186 19.856 20.1821L18.4015 21.9232C18.1603 22.2122 18.2221 22.6243 18.5397 22.8439C18.6701 22.9342 18.8237 22.9779 18.976 22.9779C19.1939 22.9779 19.4093 22.8883 19.5515 22.7183L19.6382 22.6144C19.9702 25.2842 22.466 27.3659 25.4871 27.3659Z" fill="#4889F8"/>
<path d="M2.35449 40.4955H5.63743C6.4385 40.4955 7.15016 40.6471 7.77242 40.9503C8.39468 41.2467 8.87746 41.6705 9.22078 42.2219C9.56409 42.7664 9.73575 43.397 9.73575 44.1137C9.73575 44.8305 9.56409 45.4645 9.22078 46.0159C8.87746 46.5603 8.39468 46.9842 7.77242 47.2874C7.15016 47.5838 6.4385 47.732 5.63743 47.732H2.35449V40.4955ZM5.57306 46.5948C6.1238 46.5948 6.60658 46.4949 7.02142 46.295C7.44341 46.0883 7.76527 45.7988 7.98699 45.4266C8.21587 45.0476 8.33031 44.6099 8.33031 44.1137C8.33031 43.6175 8.21587 43.1833 7.98699 42.8111C7.76527 42.4321 7.44341 42.1426 7.02142 41.9428C6.60658 41.736 6.1238 41.6326 5.57306 41.6326H3.74921V46.5948H5.57306Z" fill="#1A73E8"/>
<path d="M14.7264 47.8353C13.9611 47.8353 13.2709 47.6768 12.6558 47.3598C12.0407 47.0359 11.5579 46.5914 11.2074 46.0262C10.8569 45.4542 10.6817 44.8167 10.6817 44.1137C10.6817 43.4107 10.8569 42.7767 11.2074 42.2116C11.5579 41.6395 12.0407 41.195 12.6558 40.878C13.2709 40.554 13.9611 40.3921 14.7264 40.3921C15.4917 40.3921 16.1819 40.554 16.797 40.878C17.4121 41.195 17.8949 41.6361 18.2454 42.2012C18.5958 42.7664 18.7711 43.4039 18.7711 44.1137C18.7711 44.8236 18.5958 45.4611 18.2454 46.0262C17.8949 46.5914 17.4121 47.0359 16.797 47.3598C16.1819 47.6768 15.4917 47.8353 14.7264 47.8353ZM14.7264 46.6568C15.227 46.6568 15.6776 46.55 16.0782 46.3364C16.4787 46.1158 16.7934 45.8126 17.0223 45.4266C17.2512 45.0338 17.3656 44.5962 17.3656 44.1137C17.3656 43.6313 17.2512 43.1971 17.0223 42.8111C16.7934 42.4183 16.4787 42.1151 16.0782 41.9014C15.6776 41.6809 15.227 41.5706 14.7264 41.5706C14.2257 41.5706 13.7751 41.6809 13.3746 41.9014C12.974 42.1151 12.6593 42.4183 12.4305 42.8111C12.2016 43.1971 12.0872 43.6313 12.0872 44.1137C12.0872 44.5962 12.2016 45.0338 12.4305 45.4266C12.6593 45.8126 12.974 46.1158 13.3746 46.3364C13.7751 46.55 14.2257 46.6568 14.7264 46.6568Z" fill="#1A73E8"/>
<path d="M26.9226 40.4955V47.732H25.7746L21.6334 42.8318V47.732H20.2494V40.4955H21.3974L25.5386 45.3956V40.4955H26.9226Z" fill="#1A73E8"/>
<path d="M31.5956 43.4831C32.2894 43.5658 32.8187 43.7932 33.1835 44.1654C33.5482 44.5376 33.7306 45.0028 33.7306 45.561C33.7306 45.9814 33.6198 46.3639 33.398 46.7085C33.1763 47.0531 32.8401 47.3288 32.3895 47.5356C31.9461 47.7354 31.4025 47.8353 30.7588 47.8353C30.2224 47.8353 29.7038 47.763 29.2032 47.6183C28.7096 47.4666 28.2877 47.2599 27.9372 46.998L28.538 45.9539C28.8098 46.1744 29.1388 46.3501 29.525 46.4811C29.9184 46.6051 30.3225 46.6672 30.7373 46.6672C31.2309 46.6672 31.6171 46.5707 31.896 46.3777C32.1821 46.1778 32.3252 45.9091 32.3252 45.5714C32.3252 45.2337 32.1893 44.9718 31.9175 44.7857C31.6529 44.5927 31.2452 44.4962 30.6944 44.4962H30.0078V43.5762L31.7136 41.6223H28.302V40.4955H33.4195V41.3949L31.5956 43.4831Z" fill="#1A73E8"/>
<path d="M38.0546 43.266C38.5481 43.266 38.9915 43.3591 39.3849 43.5451C39.7783 43.7243 40.0858 43.9828 40.3076 44.3205C40.5293 44.6582 40.6402 45.0476 40.6402 45.4887C40.6402 45.9573 40.5186 46.3708 40.2754 46.7292C40.0322 47.0807 39.7032 47.3529 39.2884 47.5459C38.8735 47.7389 38.4086 47.8353 37.8936 47.8353C36.8637 47.8353 36.0626 47.5252 35.4904 46.9049C34.9254 46.2847 34.6429 45.3956 34.6429 44.2378C34.6429 43.4245 34.7967 42.7319 35.1042 42.1599C35.4118 41.5809 35.8409 41.1433 36.3916 40.847C36.9495 40.5437 37.5932 40.3921 38.3228 40.3921C38.709 40.3921 39.0702 40.4334 39.4064 40.5161C39.7497 40.592 40.0465 40.7057 40.2968 40.8573L39.7819 41.8704C39.4099 41.6361 38.9343 41.5189 38.355 41.5189C37.6326 41.5189 37.0675 41.7326 36.6599 42.1599C36.2522 42.5872 36.0483 43.204 36.0483 44.0103V44.0207C36.27 43.7726 36.5526 43.5865 36.8959 43.4624C37.2392 43.3315 37.6254 43.266 38.0546 43.266ZM37.8185 46.7809C38.2548 46.7809 38.6089 46.6706 38.8807 46.4501C39.1525 46.2226 39.2884 45.9228 39.2884 45.5507C39.2884 45.1716 39.1525 44.8718 38.8807 44.6513C38.6089 44.4307 38.2441 44.3205 37.7864 44.3205C37.3358 44.3205 36.9674 44.4376 36.6813 44.672C36.4024 44.9063 36.2629 45.2026 36.2629 45.561C36.2629 45.9125 36.3988 46.2054 36.6706 46.4397C36.9495 46.6672 37.3322 46.7809 37.8185 46.7809Z" fill="#1A73E8"/>
<path d="M44.5019 47.8353C43.9011 47.8353 43.3647 47.6906 42.8927 47.4012C42.4206 47.1048 42.0487 46.6775 41.7769 46.1193C41.5051 45.5541 41.3692 44.8856 41.3692 44.1137C41.3692 43.3418 41.5051 42.6768 41.7769 42.1185C42.0487 41.5534 42.4206 41.1261 42.8927 40.8366C43.3647 40.5403 43.9011 40.3921 44.5019 40.3921C45.1027 40.3921 45.6392 40.5403 46.1112 40.8366C46.5904 41.1261 46.9659 41.5534 47.2377 42.1185C47.5095 42.6768 47.6454 43.3418 47.6454 44.1137C47.6454 44.8856 47.5095 45.5541 47.2377 46.1193C46.9659 46.6775 46.5904 47.1048 46.1112 47.4012C45.6392 47.6906 45.1027 47.8353 44.5019 47.8353ZM44.5019 46.6672C45.0384 46.6672 45.4604 46.4535 45.7679 46.0262C46.0826 45.5989 46.24 44.9614 46.24 44.1137C46.24 43.266 46.0826 42.6285 45.7679 42.2012C45.4604 41.7739 45.0384 41.5603 44.5019 41.5603C43.9727 41.5603 43.5507 41.7739 43.236 42.2012C42.9284 42.6285 42.7746 43.266 42.7746 44.1137C42.7746 44.9614 42.9284 45.5989 43.236 46.0262C43.5507 46.4535 43.9727 46.6672 44.5019 46.6672Z" fill="#1A73E8"/>
</svg>
