<svg width="117" height="118" viewBox="0 0 117 118" fill="none" xmlns="http://www.w3.org/2000/svg">
<path fill-rule="evenodd" clip-rule="evenodd" d="M28.2692 6C28.2692 2.68629 30.9555 0 34.2692 0H82.7308C86.0445 0 88.7308 2.68629 88.7308 6V8.15385H111C114.314 8.15385 117 10.8401 117 14.1538V22.3077C117 30.3683 113.829 38.1102 108.166 43.8271C102.825 49.2187 95.6793 52.3922 88.1449 52.7377C86.9863 58.5801 84.1414 64.0033 79.8964 68.2886C75.6631 72.5622 70.2959 75.4422 64.5 76.6249V106H78.6923C82.006 106 84.6923 108.686 84.6923 112C84.6923 115.314 82.006 118 78.6923 118H58.5H38.3077C34.994 118 32.3077 115.314 32.3077 112C32.3077 108.686 34.994 106 38.3077 106H52.5V76.6249C46.704 75.4422 41.3368 72.5622 37.1036 68.2886C32.8586 64.0033 30.0137 58.5801 28.8551 52.7377C21.3207 52.3922 14.1751 49.2187 8.83433 43.8271C3.17134 38.1102 0 30.3683 0 22.3077V14.1538C0 10.8401 2.68629 8.15385 6 8.15385H28.2692V6ZM40.2692 14.1538V46.7692C40.2692 51.6838 42.2036 56.3857 45.629 59.8437C49.0524 63.2997 53.6833 65.2308 58.5 65.2308C63.3166 65.2308 67.9476 63.2997 71.371 59.8437C74.7963 56.3857 76.7308 51.6838 76.7308 46.7692V14.1538L76.7308 12H40.2692V14.1538ZM88.7308 40.6621L88.7308 20.1538H105V22.3077C105 27.2223 103.066 31.9242 99.6403 35.3821C96.6847 38.3659 92.829 40.213 88.7308 40.6621ZM28.2692 40.6621V20.1538H12V22.3077C12 27.2223 13.9344 31.9242 17.3597 35.3821C20.3153 38.3659 24.171 40.213 28.2692 40.6621Z" fill="#BDFDEF"/>
</svg>
