<svg width="101" height="101" viewBox="0 0 101 101" fill="none" xmlns="http://www.w3.org/2000/svg">
<path fill-rule="evenodd" clip-rule="evenodd" d="M50.5 12C40.2892 12 30.4965 16.0562 23.2764 23.2764C16.0562 30.4965 12 40.2892 12 50.5V88.1539C12 88.3783 12.0891 88.5935 12.2478 88.7522C12.4065 88.9109 12.6217 89 12.8462 89H26.5385C26.7629 89 26.9781 88.9109 27.1368 88.7522C27.2955 88.5935 27.3846 88.3783 27.3846 88.1539V60.7692C27.3846 60.5448 27.2955 60.3296 27.1368 60.1709C26.9781 60.0122 26.7629 59.9231 26.5385 59.9231H19.6923C16.3786 59.9231 13.6923 57.2368 13.6923 53.9231C13.6923 50.6094 16.3786 47.9231 19.6923 47.9231H26.5385C29.9455 47.9231 33.2129 49.2765 35.6221 51.6856C38.0312 54.0947 39.3846 57.3622 39.3846 60.7692V88.1539C39.3846 91.5609 38.0312 94.8283 35.6221 97.2374C33.2129 99.6466 29.9455 101 26.5385 101H12.8462C9.43914 101 6.17167 99.6466 3.76255 97.2374C1.35343 94.8283 0 91.5609 0 88.1539V50.5C0 37.1066 5.32052 24.2617 14.7911 14.7911C24.2617 5.32052 37.1066 0 50.5 0C63.8934 0 76.7383 5.32052 86.2089 14.7911C95.6795 24.2617 101 37.1066 101 50.5V88.1539C101 91.5609 99.6466 94.8283 97.2374 97.2374C94.8283 99.6466 91.5609 101 88.1539 101H74.4615C71.0545 101 67.7871 99.6466 65.3779 97.2374C62.9688 94.8283 61.6154 91.5609 61.6154 88.1539V60.7692C61.6154 57.3622 62.9688 54.0947 65.3779 51.6856C67.7871 49.2765 71.0545 47.9231 74.4615 47.9231H81.3077C84.6214 47.9231 87.3077 50.6094 87.3077 53.9231C87.3077 57.2368 84.6214 59.9231 81.3077 59.9231H74.4615C74.2371 59.9231 74.0219 60.0122 73.8632 60.1709C73.7045 60.3296 73.6154 60.5448 73.6154 60.7692V88.1539C73.6154 88.3783 73.7045 88.5935 73.8632 88.7522C74.0219 88.9109 74.2371 89 74.4615 89H88.1539C88.3783 89 88.5935 88.9109 88.7522 88.7522C88.9109 88.5935 89 88.3783 89 88.1539V50.5C89 40.2892 84.9438 30.4965 77.7236 23.2764C70.5035 16.0562 60.7108 12 50.5 12Z" fill="#BDFDEF"/>
</svg>
